<?xml version="1.0" encoding="UTF-8"?>
<svg xmlns="http://www.w3.org/2000/svg" viewBox="0 0 480 80" role="img" aria-label="BuildRadar">
  <rect width="480" height="80" fill="#1B3A5C"/>
<g transform="translate(42,40) scale(0.43)">
      <g transform="rotate(0)">    <ellipse cx="0" cy="-45"   rx="1.2" ry="30"   fill="#D4AF37"/></g>
      <g transform="rotate(22.5)"> <ellipse cx="0" cy="-60"   rx="1.2" ry="15"   fill="#C0C0C0"/></g>
      <g transform="rotate(45)">   <ellipse cx="0" cy="-52.5" rx="1.2" ry="22.5" fill="#D4AF37"/></g>
      <g transform="rotate(67.5)"> <ellipse cx="0" cy="-60"   rx="1.2" ry="15"   fill="#C0C0C0"/></g>
      <g transform="rotate(90)">   <ellipse cx="0" cy="-45"   rx="1.2" ry="30"   fill="#D4AF37"/></g>
      <g transform="rotate(112.5)"><ellipse cx="0" cy="-60"   rx="1.2" ry="15"   fill="#C0C0C0"/></g>
      <g transform="rotate(135)">  <ellipse cx="0" cy="-52.5" rx="1.2" ry="22.5" fill="#D4AF37"/></g>
      <g transform="rotate(157.5)"><ellipse cx="0" cy="-60"   rx="1.2" ry="15"   fill="#C0C0C0"/></g>
      <g transform="rotate(180)">  <ellipse cx="0" cy="-45"   rx="1.2" ry="30"   fill="#D4AF37"/></g>
      <g transform="rotate(202.5)"><ellipse cx="0" cy="-60"   rx="1.2" ry="15"   fill="#C0C0C0"/></g>
      <g transform="rotate(225)">  <ellipse cx="0" cy="-52.5" rx="1.2" ry="22.5" fill="#D4AF37"/></g>
      <g transform="rotate(247.5)"><ellipse cx="0" cy="-60"   rx="1.2" ry="15"   fill="#C0C0C0"/></g>
      <g transform="rotate(270)">  <ellipse cx="0" cy="-45"   rx="1.2" ry="30"   fill="#D4AF37"/></g>
      <g transform="rotate(292.5)"><ellipse cx="0" cy="-60"   rx="1.2" ry="15"   fill="#C0C0C0"/></g>
      <g transform="rotate(315)">  <ellipse cx="0" cy="-52.5" rx="1.2" ry="22.5" fill="#D4AF37"/></g>
      <g transform="rotate(337.5)"><ellipse cx="0" cy="-60"   rx="1.2" ry="15"   fill="#C0C0C0"/></g>
      <circle r="5" fill="#FFFFFF"/>
    </g>
  <text x="86" y="36" text-anchor="start"
        font-family="Cinzel, Georgia, serif" font-weight="700" font-size="20"
        fill="#C0C0C0" letter-spacing="1">BUILD RADAR</text>
  <text x="86" y="56" text-anchor="start"
        font-family="Montserrat, Arial, Helvetica, sans-serif" font-weight="400" font-size="6.5"
        fill="#D4AF37" letter-spacing="1.8">CONSTRUCTION INTELLIGENCE YOU CAN TRUST</text>
</svg>