<?xml version="1.0" encoding="UTF-8"?>
<!--
  BuildRadar — Stacked Lockup (Primary)
  Icon centred top · BUILD RADAR · tagline
-->
<svg xmlns="http://www.w3.org/2000/svg" viewBox="0 0 380 195" role="img" aria-label="BuildRadar">
  <defs>
    <style>@import url('https://fonts.googleapis.com/css2?family=Cinzel:wght@700&amp;family=Montserrat&amp;display=swap');</style>
    <radialGradient id="sg-gold" cx="0" cy="0" r="75" gradientUnits="userSpaceOnUse">
      <stop offset="0%"   stop-color="#F5D060"/>
      <stop offset="60%"  stop-color="#D4AF37"/>
      <stop offset="100%" stop-color="#D4AF37" stop-opacity="0"/>
    </radialGradient>
    <radialGradient id="sg-silver" cx="0" cy="0" r="75" gradientUnits="userSpaceOnUse">
      <stop offset="0%"   stop-color="#FFFFFF"/>
      <stop offset="60%"  stop-color="#C0C0C0"/>
      <stop offset="100%" stop-color="#C0C0C0" stop-opacity="0"/>
    </radialGradient>
    <radialGradient id="sg-dot">
      <stop offset="0%"   stop-color="#FFFFFF"/>
      <stop offset="100%" stop-color="#D4AF37"/>
    </radialGradient>
  </defs>

  <rect width="380" height="195" fill="#0A1628"/>

  <!-- Icon — scale 0.72 → outer radius 54px, centred at (190,76) -->
  <g transform="translate(190,76) scale(0.72)">
    <g transform="rotate(0)">    <ellipse cx="0" cy="-45"   rx="1.2" ry="30"   fill="url(#sg-gold)"/></g>
    <g transform="rotate(22.5)"> <ellipse cx="0" cy="-60"   rx="1.2" ry="15"   fill="url(#sg-silver)"/></g>
    <g transform="rotate(45)">   <ellipse cx="0" cy="-52.5" rx="1.2" ry="22.5" fill="url(#sg-gold)"/></g>
    <g transform="rotate(67.5)"> <ellipse cx="0" cy="-60"   rx="1.2" ry="15"   fill="url(#sg-silver)"/></g>
    <g transform="rotate(90)">   <ellipse cx="0" cy="-45"   rx="1.2" ry="30"   fill="url(#sg-gold)"/></g>
    <g transform="rotate(112.5)"><ellipse cx="0" cy="-60"   rx="1.2" ry="15"   fill="url(#sg-silver)"/></g>
    <g transform="rotate(135)">  <ellipse cx="0" cy="-52.5" rx="1.2" ry="22.5" fill="url(#sg-gold)"/></g>
    <g transform="rotate(157.5)"><ellipse cx="0" cy="-60"   rx="1.2" ry="15"   fill="url(#sg-silver)"/></g>
    <g transform="rotate(180)">  <ellipse cx="0" cy="-45"   rx="1.2" ry="30"   fill="url(#sg-gold)"/></g>
    <g transform="rotate(202.5)"><ellipse cx="0" cy="-60"   rx="1.2" ry="15"   fill="url(#sg-silver)"/></g>
    <g transform="rotate(225)">  <ellipse cx="0" cy="-52.5" rx="1.2" ry="22.5" fill="url(#sg-gold)"/></g>
    <g transform="rotate(247.5)"><ellipse cx="0" cy="-60"   rx="1.2" ry="15"   fill="url(#sg-silver)"/></g>
    <g transform="rotate(270)">  <ellipse cx="0" cy="-45"   rx="1.2" ry="30"   fill="url(#sg-gold)"/></g>
    <g transform="rotate(292.5)"><ellipse cx="0" cy="-60"   rx="1.2" ry="15"   fill="url(#sg-silver)"/></g>
    <g transform="rotate(315)">  <ellipse cx="0" cy="-52.5" rx="1.2" ry="22.5" fill="url(#sg-gold)"/></g>
    <g transform="rotate(337.5)"><ellipse cx="0" cy="-60"   rx="1.2" ry="15"   fill="url(#sg-silver)"/></g>
    <circle r="5" fill="url(#sg-dot)"/>
  </g>

  <text x="190" y="152" text-anchor="middle"
        font-family="Cinzel, Georgia, serif" font-weight="700" font-size="26"
        fill="#C0C0C0" letter-spacing="1.3">BUILD RADAR</text>

  <text x="190" y="173" text-anchor="middle"
        font-family="Montserrat, Arial, sans-serif" font-weight="400" font-size="7.5"
        fill="#D4AF37" letter-spacing="2.25">CONSTRUCTION INTELLIGENCE YOU CAN TRUST</text>
</svg>
