<?xml version="1.0" encoding="UTF-8"?>
<svg xmlns="http://www.w3.org/2000/svg" viewBox="0 0 200 200" role="img" aria-label="BuildRadar">

  <g transform="translate(100,100)">
    <g transform="rotate(0)">    <ellipse cx="0" cy="-45"   rx="1.2" ry="30"   fill="#D4AF37"/></g>
    <g transform="rotate(22.5)"> <ellipse cx="0" cy="-60"   rx="1.2" ry="15"   fill="#C0C0C0"/></g>
    <g transform="rotate(45)">   <ellipse cx="0" cy="-52.5" rx="1.2" ry="22.5" fill="#D4AF37"/></g>
    <g transform="rotate(67.5)"> <ellipse cx="0" cy="-60"   rx="1.2" ry="15"   fill="#C0C0C0"/></g>
    <g transform="rotate(90)">   <ellipse cx="0" cy="-45"   rx="1.2" ry="30"   fill="#D4AF37"/></g>
    <g transform="rotate(112.5)"><ellipse cx="0" cy="-60"   rx="1.2" ry="15"   fill="#C0C0C0"/></g>
    <g transform="rotate(135)">  <ellipse cx="0" cy="-52.5" rx="1.2" ry="22.5" fill="#D4AF37"/></g>
    <g transform="rotate(157.5)"><ellipse cx="0" cy="-60"   rx="1.2" ry="15"   fill="#C0C0C0"/></g>
    <g transform="rotate(180)">  <ellipse cx="0" cy="-45"   rx="1.2" ry="30"   fill="#D4AF37"/></g>
    <g transform="rotate(202.5)"><ellipse cx="0" cy="-60"   rx="1.2" ry="15"   fill="#C0C0C0"/></g>
    <g transform="rotate(225)">  <ellipse cx="0" cy="-52.5" rx="1.2" ry="22.5" fill="#D4AF37"/></g>
    <g transform="rotate(247.5)"><ellipse cx="0" cy="-60"   rx="1.2" ry="15"   fill="#C0C0C0"/></g>
    <g transform="rotate(270)">  <ellipse cx="0" cy="-45"   rx="1.2" ry="30"   fill="#D4AF37"/></g>
    <g transform="rotate(292.5)"><ellipse cx="0" cy="-60"   rx="1.2" ry="15"   fill="#C0C0C0"/></g>
    <g transform="rotate(315)">  <ellipse cx="0" cy="-52.5" rx="1.2" ry="22.5" fill="#D4AF37"/></g>
    <g transform="rotate(337.5)"><ellipse cx="0" cy="-60"   rx="1.2" ry="15"   fill="#C0C0C0"/></g>
    <circle r="5" fill="#FFFFFF"/>
  </g>
</svg>