<?xml version="1.0" encoding="UTF-8"?>
<svg xmlns="http://www.w3.org/2000/svg" viewBox="0 0 640 360">
  <defs>
    <radialGradient id="cg-gold" cx="0" cy="0" r="75" gradientUnits="userSpaceOnUse">
      <stop offset="0%"   stop-color="#F5D060"/>
      <stop offset="60%"  stop-color="#D4AF37"/>
      <stop offset="100%" stop-color="#D4AF37" stop-opacity="0"/>
    </radialGradient>
    <radialGradient id="cg-silver" cx="0" cy="0" r="75" gradientUnits="userSpaceOnUse">
      <stop offset="0%"   stop-color="#FFFFFF"/>
      <stop offset="60%"  stop-color="#C0C0C0"/>
      <stop offset="100%" stop-color="#C0C0C0" stop-opacity="0"/>
    </radialGradient>
    <radialGradient id="cg-dot">
      <stop offset="0%"   stop-color="#FFFFFF"/>
      <stop offset="100%" stop-color="#D4AF37"/>
    </radialGradient>
    <style>@import url("https://fonts.googleapis.com/css2?family=Cinzel:wght@700&amp;family=Montserrat&amp;display=swap");</style>
  </defs>

  <rect width="640" height="360" fill="#0A1628"/>
  <!-- stacked: icon top, text below, whole block ~220px tall, y offset = (360-220)/2 = 70 -->
  <g transform="translate(320,145) scale(0.85)">
    <g transform="rotate(0)">    <ellipse cx="0" cy="-45"   rx="1.2" ry="30"   fill="url(#cg-gold)"/></g>
    <g transform="rotate(22.5)"> <ellipse cx="0" cy="-60"   rx="1.2" ry="15"   fill="url(#cg-silver)"/></g>
    <g transform="rotate(45)">   <ellipse cx="0" cy="-52.5" rx="1.2" ry="22.5" fill="url(#cg-gold)"/></g>
    <g transform="rotate(67.5)"> <ellipse cx="0" cy="-60"   rx="1.2" ry="15"   fill="url(#cg-silver)"/></g>
    <g transform="rotate(90)">   <ellipse cx="0" cy="-45"   rx="1.2" ry="30"   fill="url(#cg-gold)"/></g>
    <g transform="rotate(112.5)"><ellipse cx="0" cy="-60"   rx="1.2" ry="15"   fill="url(#cg-silver)"/></g>
    <g transform="rotate(135)">  <ellipse cx="0" cy="-52.5" rx="1.2" ry="22.5" fill="url(#cg-gold)"/></g>
    <g transform="rotate(157.5)"><ellipse cx="0" cy="-60"   rx="1.2" ry="15"   fill="url(#cg-silver)"/></g>
    <g transform="rotate(180)">  <ellipse cx="0" cy="-45"   rx="1.2" ry="30"   fill="url(#cg-gold)"/></g>
    <g transform="rotate(202.5)"><ellipse cx="0" cy="-60"   rx="1.2" ry="15"   fill="url(#cg-silver)"/></g>
    <g transform="rotate(225)">  <ellipse cx="0" cy="-52.5" rx="1.2" ry="22.5" fill="url(#cg-gold)"/></g>
    <g transform="rotate(247.5)"><ellipse cx="0" cy="-60"   rx="1.2" ry="15"   fill="url(#cg-silver)"/></g>
    <g transform="rotate(270)">  <ellipse cx="0" cy="-45"   rx="1.2" ry="30"   fill="url(#cg-gold)"/></g>
    <g transform="rotate(292.5)"><ellipse cx="0" cy="-60"   rx="1.2" ry="15"   fill="url(#cg-silver)"/></g>
    <g transform="rotate(315)">  <ellipse cx="0" cy="-52.5" rx="1.2" ry="22.5" fill="url(#cg-gold)"/></g>
    <g transform="rotate(337.5)"><ellipse cx="0" cy="-60"   rx="1.2" ry="15"   fill="url(#cg-silver)"/></g>
    <circle r="5" fill="url(#cg-dot)"/>
</g>
  <text x="320" y="228" text-anchor="middle"
        font-family="Cinzel, Georgia, serif" font-weight="700" font-size="32"
        fill="#C0C0C0" letter-spacing="1.8">BUILD RADAR</text>
  <text x="320" y="254" text-anchor="middle"
        font-family="Montserrat, Arial, sans-serif" font-weight="400" font-size="9.5"
        fill="#D4AF37" letter-spacing="2.8">CONSTRUCTION INTELLIGENCE YOU CAN TRUST</text>
</svg>