<?xml version="1.0" encoding="UTF-8"?>
<svg xmlns="http://www.w3.org/2000/svg" viewBox="0 0 820 312" role="img" aria-label="BuildRadar">
  <defs>
    <radialGradient id="fbg" cx="50%" cy="40%" r="50%">
      <stop offset="0%"   stop-color="#244B73"/>
      <stop offset="100%" stop-color="#1B3A5C"/>
    </radialGradient>
    <pattern id="grid" width="40" height="40" patternUnits="userSpaceOnUse">
      <circle cx="20" cy="20" r="0.5" fill="rgba(255,255,255,0.03)"/>
    </pattern>
  </defs>
  <rect width="820" height="312" fill="url(#fbg)"/>
  <rect width="820" height="312" fill="url(#grid)"/>
<g transform="translate(410,100) scale(0.6)">
      <g transform="rotate(0)">    <ellipse cx="0" cy="-45"   rx="1.2" ry="30"   fill="#D4AF37"/></g>
      <g transform="rotate(22.5)"> <ellipse cx="0" cy="-60"   rx="1.2" ry="15"   fill="#C0C0C0"/></g>
      <g transform="rotate(45)">   <ellipse cx="0" cy="-52.5" rx="1.2" ry="22.5" fill="#D4AF37"/></g>
      <g transform="rotate(67.5)"> <ellipse cx="0" cy="-60"   rx="1.2" ry="15"   fill="#C0C0C0"/></g>
      <g transform="rotate(90)">   <ellipse cx="0" cy="-45"   rx="1.2" ry="30"   fill="#D4AF37"/></g>
      <g transform="rotate(112.5)"><ellipse cx="0" cy="-60"   rx="1.2" ry="15"   fill="#C0C0C0"/></g>
      <g transform="rotate(135)">  <ellipse cx="0" cy="-52.5" rx="1.2" ry="22.5" fill="#D4AF37"/></g>
      <g transform="rotate(157.5)"><ellipse cx="0" cy="-60"   rx="1.2" ry="15"   fill="#C0C0C0"/></g>
      <g transform="rotate(180)">  <ellipse cx="0" cy="-45"   rx="1.2" ry="30"   fill="#D4AF37"/></g>
      <g transform="rotate(202.5)"><ellipse cx="0" cy="-60"   rx="1.2" ry="15"   fill="#C0C0C0"/></g>
      <g transform="rotate(225)">  <ellipse cx="0" cy="-52.5" rx="1.2" ry="22.5" fill="#D4AF37"/></g>
      <g transform="rotate(247.5)"><ellipse cx="0" cy="-60"   rx="1.2" ry="15"   fill="#C0C0C0"/></g>
      <g transform="rotate(270)">  <ellipse cx="0" cy="-45"   rx="1.2" ry="30"   fill="#D4AF37"/></g>
      <g transform="rotate(292.5)"><ellipse cx="0" cy="-60"   rx="1.2" ry="15"   fill="#C0C0C0"/></g>
      <g transform="rotate(315)">  <ellipse cx="0" cy="-52.5" rx="1.2" ry="22.5" fill="#D4AF37"/></g>
      <g transform="rotate(337.5)"><ellipse cx="0" cy="-60"   rx="1.2" ry="15"   fill="#C0C0C0"/></g>
      <circle r="5" fill="#FFFFFF"/>
    </g>
  <text x="410" y="180" text-anchor="middle"
        font-family="Cinzel, Georgia, serif" font-weight="700" font-size="28"
        fill="#C0C0C0" letter-spacing="2">BUILD RADAR</text>
  <text x="410" y="205" text-anchor="middle"
        font-family="Montserrat, Arial, Helvetica, sans-serif" font-weight="400" font-size="10"
        fill="#D4AF37" letter-spacing="3">CONSTRUCTION INTELLIGENCE YOU CAN TRUST</text>
  <line x1="350" y1="240" x2="470" y2="240" stroke="#F0B429" stroke-width="1" opacity="0.4"/>
  <text x="410" y="270" text-anchor="middle"
        font-family="Montserrat, Arial, Helvetica, sans-serif" font-weight="400" font-size="11"
        fill="#94A3B8" letter-spacing="1">Get the building job before they search for anyone</text>
</svg>