<?xml version="1.0" encoding="UTF-8"?>
<svg xmlns="http://www.w3.org/2000/svg" viewBox="0 0 640 360" role="img" aria-label="BuildRadar">
  <defs>
    <radialGradient id="fbmg" cx="50%" cy="35%" r="55%">
      <stop offset="0%"   stop-color="#244B73"/>
      <stop offset="100%" stop-color="#1B3A5C"/>
    </radialGradient>
    <pattern id="mgrid" width="40" height="40" patternUnits="userSpaceOnUse">
      <circle cx="20" cy="20" r="0.5" fill="rgba(255,255,255,0.03)"/>
    </pattern>
  </defs>
  <rect width="640" height="360" fill="url(#fbmg)"/>
  <rect width="640" height="360" fill="url(#mgrid)"/>
<g transform="translate(320,110) scale(0.55)">
      <g transform="rotate(0)">    <ellipse cx="0" cy="-45"   rx="1.2" ry="30"   fill="#D4AF37"/></g>
      <g transform="rotate(22.5)"> <ellipse cx="0" cy="-60"   rx="1.2" ry="15"   fill="#C0C0C0"/></g>
      <g transform="rotate(45)">   <ellipse cx="0" cy="-52.5" rx="1.2" ry="22.5" fill="#D4AF37"/></g>
      <g transform="rotate(67.5)"> <ellipse cx="0" cy="-60"   rx="1.2" ry="15"   fill="#C0C0C0"/></g>
      <g transform="rotate(90)">   <ellipse cx="0" cy="-45"   rx="1.2" ry="30"   fill="#D4AF37"/></g>
      <g transform="rotate(112.5)"><ellipse cx="0" cy="-60"   rx="1.2" ry="15"   fill="#C0C0C0"/></g>
      <g transform="rotate(135)">  <ellipse cx="0" cy="-52.5" rx="1.2" ry="22.5" fill="#D4AF37"/></g>
      <g transform="rotate(157.5)"><ellipse cx="0" cy="-60"   rx="1.2" ry="15"   fill="#C0C0C0"/></g>
      <g transform="rotate(180)">  <ellipse cx="0" cy="-45"   rx="1.2" ry="30"   fill="#D4AF37"/></g>
      <g transform="rotate(202.5)"><ellipse cx="0" cy="-60"   rx="1.2" ry="15"   fill="#C0C0C0"/></g>
      <g transform="rotate(225)">  <ellipse cx="0" cy="-52.5" rx="1.2" ry="22.5" fill="#D4AF37"/></g>
      <g transform="rotate(247.5)"><ellipse cx="0" cy="-60"   rx="1.2" ry="15"   fill="#C0C0C0"/></g>
      <g transform="rotate(270)">  <ellipse cx="0" cy="-45"   rx="1.2" ry="30"   fill="#D4AF37"/></g>
      <g transform="rotate(292.5)"><ellipse cx="0" cy="-60"   rx="1.2" ry="15"   fill="#C0C0C0"/></g>
      <g transform="rotate(315)">  <ellipse cx="0" cy="-52.5" rx="1.2" ry="22.5" fill="#D4AF37"/></g>
      <g transform="rotate(337.5)"><ellipse cx="0" cy="-60"   rx="1.2" ry="15"   fill="#C0C0C0"/></g>
      <circle r="5" fill="#FFFFFF"/>
    </g>
  <text x="320" y="188" text-anchor="middle"
        font-family="Cinzel, Georgia, serif" font-weight="700" font-size="24"
        fill="#C0C0C0" letter-spacing="2">BUILD RADAR</text>
  <text x="320" y="210" text-anchor="middle"
        font-family="Montserrat, Arial, Helvetica, sans-serif" font-weight="400" font-size="9"
        fill="#D4AF37" letter-spacing="3">CONSTRUCTION INTELLIGENCE YOU CAN TRUST</text>
  <line x1="270" y1="228" x2="370" y2="228" stroke="#F0B429" stroke-width="1" opacity="0.4"/>
  <text x="320" y="252" text-anchor="middle"
        font-family="Montserrat, Arial, Helvetica, sans-serif" font-weight="400" font-size="10"
        fill="#94A3B8" letter-spacing="1">buildradar.co.uk</text>
</svg>