<?xml version="1.0" encoding="UTF-8"?>
<svg xmlns="http://www.w3.org/2000/svg" viewBox="0 0 1200 630" role="img" aria-label="BuildRadar">
  <defs>
    <radialGradient id="ogg" cx="50%" cy="40%" r="60%">
      <stop offset="0%"   stop-color="#244B73"/>
      <stop offset="100%" stop-color="#1B3A5C"/>
    </radialGradient>
    <pattern id="oggrid" width="50" height="50" patternUnits="userSpaceOnUse">
      <circle cx="25" cy="25" r="0.6" fill="rgba(255,255,255,0.025)"/>
    </pattern>
  </defs>
  <rect width="1200" height="630" fill="url(#ogg)"/>
  <rect width="1200" height="630" fill="url(#oggrid)"/>
<g transform="translate(200,210) scale(0.95)">
      <g transform="rotate(0)">    <ellipse cx="0" cy="-45"   rx="1.2" ry="30"   fill="#D4AF37"/></g>
      <g transform="rotate(22.5)"> <ellipse cx="0" cy="-60"   rx="1.2" ry="15"   fill="#C0C0C0"/></g>
      <g transform="rotate(45)">   <ellipse cx="0" cy="-52.5" rx="1.2" ry="22.5" fill="#D4AF37"/></g>
      <g transform="rotate(67.5)"> <ellipse cx="0" cy="-60"   rx="1.2" ry="15"   fill="#C0C0C0"/></g>
      <g transform="rotate(90)">   <ellipse cx="0" cy="-45"   rx="1.2" ry="30"   fill="#D4AF37"/></g>
      <g transform="rotate(112.5)"><ellipse cx="0" cy="-60"   rx="1.2" ry="15"   fill="#C0C0C0"/></g>
      <g transform="rotate(135)">  <ellipse cx="0" cy="-52.5" rx="1.2" ry="22.5" fill="#D4AF37"/></g>
      <g transform="rotate(157.5)"><ellipse cx="0" cy="-60"   rx="1.2" ry="15"   fill="#C0C0C0"/></g>
      <g transform="rotate(180)">  <ellipse cx="0" cy="-45"   rx="1.2" ry="30"   fill="#D4AF37"/></g>
      <g transform="rotate(202.5)"><ellipse cx="0" cy="-60"   rx="1.2" ry="15"   fill="#C0C0C0"/></g>
      <g transform="rotate(225)">  <ellipse cx="0" cy="-52.5" rx="1.2" ry="22.5" fill="#D4AF37"/></g>
      <g transform="rotate(247.5)"><ellipse cx="0" cy="-60"   rx="1.2" ry="15"   fill="#C0C0C0"/></g>
      <g transform="rotate(270)">  <ellipse cx="0" cy="-45"   rx="1.2" ry="30"   fill="#D4AF37"/></g>
      <g transform="rotate(292.5)"><ellipse cx="0" cy="-60"   rx="1.2" ry="15"   fill="#C0C0C0"/></g>
      <g transform="rotate(315)">  <ellipse cx="0" cy="-52.5" rx="1.2" ry="22.5" fill="#D4AF37"/></g>
      <g transform="rotate(337.5)"><ellipse cx="0" cy="-60"   rx="1.2" ry="15"   fill="#C0C0C0"/></g>
      <circle r="5" fill="#FFFFFF"/>
    </g>
  <text x="600" y="210" text-anchor="start"
        font-family="Cinzel, Georgia, serif" font-weight="700" font-size="44"
        fill="#C0C0C0" letter-spacing="2">BUILD RADAR</text>
  <text x="600" y="240" text-anchor="start"
        font-family="Montserrat, Arial, Helvetica, sans-serif" font-weight="400" font-size="12"
        fill="#D4AF37" letter-spacing="4">CONSTRUCTION INTELLIGENCE YOU CAN TRUST</text>
  <text x="600" y="300" text-anchor="start"
        font-family="Cinzel, Georgia, serif" font-weight="700" font-size="36"
        fill="#FFFFFF" letter-spacing="0.5">Get the building job before</text>
  <text x="600" y="348" text-anchor="start"
        font-family="Cinzel, Georgia, serif" font-weight="700" font-size="36"
        fill="#FFFFFF" letter-spacing="0.5">they search for anyone</text>
  <line x1="600" y1="370" x2="800" y2="370" stroke="#F0B429" stroke-width="2"/>
  <text x="600" y="405" text-anchor="start"
        font-family="Montserrat, Arial, Helvetica, sans-serif" font-weight="400" font-size="16"
        fill="#94A3B8" letter-spacing="0.5">Verified opportunities delivered to your WhatsApp.</text>
  <text x="600" y="430" text-anchor="start"
        font-family="Montserrat, Arial, Helvetica, sans-serif" font-weight="400" font-size="16"
        fill="#94A3B8" letter-spacing="0.5">Before the homeowner has Googled anyone.</text>
  <text x="600" y="530" text-anchor="start"
        font-family="Montserrat, Arial, Helvetica, sans-serif" font-weight="600" font-size="14"
        fill="#D4AF37" letter-spacing="1">buildradar.co.uk</text>
</svg>